# Blender 4.5.3 LTS
# www.blender.org
mtllib duck.mtl
o SA_Animals_Duck_White
v -0.029378 0.034929 0.012818
v 0.029378 0.034929 0.012818
v -0.019413 0.101364 0.030707
v 0.019413 0.101364 0.030707
v -0.029378 0.093093 -0.042844
v 0.029378 0.093093 -0.042844
v -0.029378 0.036292 -0.029004
v 0.029378 0.036292 -0.029004
v -0.019413 0.084530 0.063717
v 0.019413 0.084530 0.063717
v 0.029378 0.054825 -0.062000
v -0.029378 0.054825 -0.062000
v -0.026637 0.057124 -0.061955
v -0.026637 0.091303 -0.044843
v -0.011327 0.069735 -0.103765
v -0.011327 0.073415 -0.103002
v 0.011327 0.069735 -0.103765
v 0.011327 0.073415 -0.103002
v 0.026637 0.057124 -0.061955
v 0.026637 0.091303 -0.044843
v 0.023952 0.054847 -0.055771
v 0.023952 0.087647 -0.039246
v -0.023952 0.087647 -0.039246
v -0.023952 0.054847 -0.055771
v 0.025684 0.027100 -0.000882
v 0.012502 0.027100 -0.000882
v 0.025684 0.027100 -0.014420
v 0.012502 0.027100 -0.014420
v 0.023908 0.006854 -0.004738
v 0.014278 0.006854 -0.004738
v 0.014278 0.006854 0.001865
v 0.023908 0.006854 0.001865
v 0.012502 0.028303 -0.001915
v 0.025684 0.028303 -0.001915
v 0.012502 0.028303 -0.013387
v 0.025684 0.028303 -0.013387
v 0.019072 0.000000 0.023191
v 0.019072 0.006854 0.023191
v 0.022964 0.006854 -0.017646
v 0.015181 0.006854 -0.017646
v 0.022964 -0.000000 -0.017646
v 0.015181 -0.000000 -0.017646
v 0.025004 -0.000000 -0.002541
v 0.025004 0.006854 -0.002541
v 0.013141 0.006854 -0.002541
v 0.013141 -0.000000 -0.002541
v 0.035828 0.000000 0.013005
v 0.035828 0.006854 0.013005
v 0.002317 0.006854 0.013005
v 0.002317 0.000000 0.013005
v -0.025684 0.027100 -0.000882
v -0.012502 0.027100 -0.000882
v -0.025684 0.027100 -0.014420
v -0.012502 0.027100 -0.014420
v -0.023908 0.006854 -0.004738
v -0.014278 0.006854 -0.004738
v -0.014278 0.006854 0.001865
v -0.023908 0.006854 0.001865
v -0.012502 0.028303 -0.001915
v -0.025684 0.028303 -0.001915
v -0.012502 0.028303 -0.013387
v -0.025684 0.028303 -0.013387
v -0.019072 0.000000 0.023191
v -0.019072 0.006854 0.023191
v -0.022964 0.006854 -0.017646
v -0.015181 0.006854 -0.017646
v -0.022964 -0.000000 -0.017646
v -0.015181 -0.000000 -0.017646
v -0.025004 -0.000000 -0.002541
v -0.025004 0.006854 -0.002541
v -0.013141 0.006854 -0.002541
v -0.013141 -0.000000 -0.002541
v -0.035828 0.000000 0.013005
v -0.035828 0.006854 0.013005
v -0.002317 0.006854 0.013005
v -0.002317 0.000000 0.013005
v -0.017967 0.086775 0.061966
v 0.017967 0.086775 0.061966
v -0.011480 0.125160 0.059051
v 0.011480 0.125160 0.059051
v -0.010261 0.142318 0.045066
v 0.010261 0.142318 0.045066
v -0.017967 0.102156 0.032213
v 0.017967 0.102156 0.032213
v -0.012932 0.092876 0.035978
v 0.012932 0.092876 0.035978
v 0.012932 0.079881 0.054406
v -0.012932 0.079881 0.054406
v -0.008094 0.133545 0.062450
v 0.008094 0.133545 0.062450
v 0.007234 0.146037 0.051172
v -0.007234 0.146037 0.051172
v -0.014389 0.150092 0.050724
v 0.014389 0.150092 0.050724
v -0.014389 0.125689 0.059422
v 0.014389 0.125689 0.059422
v -0.011178 0.142775 0.044811
v 0.011178 0.142775 0.044811
v 0.011178 0.126301 0.054551
v -0.011178 0.126301 0.054551
v -0.014389 0.125689 0.078592
v -0.014389 0.147762 0.078592
v 0.014389 0.147762 0.078592
v 0.014389 0.125689 0.078592
v 0.014389 0.144949 0.071761
v 0.014389 0.134029 0.071761
v 0.014389 0.134029 0.060578
v 0.014389 0.144949 0.060578
v -0.014389 0.134029 0.060578
v -0.014389 0.134029 0.071761
v -0.014389 0.144949 0.071761
v -0.014389 0.144949 0.060578
v 0.014389 0.143573 0.070353
v 0.014389 0.135404 0.070353
v 0.014389 0.135404 0.061987
v 0.014389 0.143573 0.061987
v -0.014389 0.135404 0.061987
v -0.014389 0.135404 0.070353
v -0.014389 0.143573 0.070353
v -0.014389 0.143573 0.061987
v -0.027021 0.027100 -0.000561
v -0.011166 0.027100 -0.000561
v -0.028536 0.041025 0.013322
v -0.005581 0.041025 0.013322
v -0.028536 0.041025 -0.015203
v -0.005581 0.041025 -0.015203
v -0.027021 0.027100 -0.014723
v -0.011166 0.027100 -0.014723
v -0.027021 0.027100 -0.000561
v -0.027021 0.027100 -0.014723
v -0.011166 0.027100 -0.014723
v -0.011166 0.027100 -0.000561
v -0.028536 0.079564 0.016111
v -0.003551 0.079564 0.016111
v -0.003551 0.053018 -0.030837
v -0.028536 0.053018 -0.030837
v -0.028536 0.079564 -0.030837
v -0.003551 0.079564 -0.030837
v -0.028536 0.046419 0.016111
v -0.003551 0.046419 0.016111
v -0.003551 0.086151 0.009232
v -0.003551 0.086151 -0.027022
v -0.024147 0.086151 -0.027022
v -0.024147 0.086151 0.009232
v 0.027021 0.027100 -0.000561
v 0.011166 0.027100 -0.000561
v 0.028536 0.041025 0.013322
v 0.005581 0.041025 0.013322
v 0.028536 0.041025 -0.015203
v 0.005581 0.041025 -0.015203
v 0.027021 0.027100 -0.014723
v 0.011166 0.027100 -0.014723
v 0.027021 0.027100 -0.000561
v 0.027021 0.027100 -0.014723
v 0.011166 0.027100 -0.014723
v 0.011166 0.027100 -0.000561
v 0.028536 0.079564 0.016111
v 0.003551 0.079564 0.016111
v 0.003551 0.053018 -0.030837
v 0.028536 0.053018 -0.030837
v 0.028536 0.079564 -0.030837
v 0.003551 0.079564 -0.030837
v 0.028536 0.046419 0.016111
v 0.003551 0.046419 0.016111
v 0.003551 0.086151 0.009232
v 0.003551 0.086151 -0.027022
v 0.024147 0.086151 -0.027022
v 0.024147 0.086151 0.009232
v 0.029378 0.103404 -0.007014
v -0.029378 0.103404 -0.007014
v -0.029378 0.078135 0.029744
v -0.029378 0.060415 0.056344
v 0.029378 0.060415 0.056344
v 0.029378 0.078135 0.029744
v -0.007859 0.126927 0.083082
v -0.007859 0.138160 0.083082
v 0.007859 0.126927 0.083082
v 0.007859 0.138160 0.083082
v -0.007859 0.129617 0.105693
v -0.007859 0.135470 0.105693
v 0.007859 0.129617 0.105693
v 0.007859 0.135470 0.105693
vn -0.0000 -0.9995 -0.0326
vn 0.8993 0.3766 0.2223
vn 0.8981 0.3758 0.2285
vn 0.9045 0.3800 0.1938
vn -0.8993 0.3766 0.2223
vn -0.8981 0.3758 0.2285
vn -0.8922 0.3721 0.2558
vn -0.0000 -0.2924 0.9563
vn 0.9244 0.3174 0.2114
vn -0.0000 -0.8719 -0.4897
vn -0.9244 0.3174 0.2114
vn -0.0000 0.9985 0.0540
vn -0.0000 0.4476 -0.8942
vn -0.9445 0.1435 -0.2954
vn -0.9444 0.0927 -0.3155
vn -0.9433 0.0674 -0.3251
vn -0.0000 0.2029 -0.9792
vn 0.9444 0.0927 -0.3155
vn 0.9445 0.1435 -0.2954
vn 0.9433 0.0674 -0.3251
vn -0.0000 -0.4499 0.8931
vn -0.0000 0.9558 -0.2940
vn -0.0000 -0.9574 -0.2888
vn 0.9255 -0.1703 0.3384
vn 0.9269 -0.1681 0.3356
vn 0.9252 -0.1707 0.3389
vn -0.0000 0.8373 0.5468
vn -0.9255 -0.1704 0.3384
vn -0.9269 -0.1681 0.3356
vn -0.9271 -0.1678 0.3352
vn -0.0000 -0.9384 -0.3456
vn -0.0000 1.0000 -0.0000
vn -0.0000 -0.4314 -0.9021
vn -0.9962 -0.0874 -0.0000
vn -0.0000 0.1344 0.9909
vn 0.9962 -0.0874 -0.0000
vn -0.0000 0.6515 0.7586
vn -1.0000 -0.0000 -0.0000
vn -0.0000 0.6516 -0.7586
vn 1.0000 -0.0000 -0.0000
vn -0.0000 -1.0000 -0.0000
vn -0.0000 -0.0000 -1.0000
vn -0.9910 -0.0000 -0.1338
vn 0.9910 -0.0000 -0.1338
vn 0.8207 -0.0000 -0.5714
vn -0.8207 -0.0000 -0.5714
vn 0.5194 -0.0000 0.8545
vn -0.5194 -0.0000 0.8545
vn -0.0000 0.0757 0.9971
vn -0.0000 0.6701 0.7423
vn -0.0000 0.3048 -0.9524
vn -0.0000 -0.8172 -0.5763
vn 0.9815 0.1671 0.0940
vn 0.9819 0.1614 0.0989
vn 0.9810 0.1725 0.0892
vn -0.9815 0.1671 0.0940
vn -0.9819 0.1614 0.0989
vn -0.9824 0.1550 0.1045
vn -0.0000 -0.3760 -0.9266
vn 0.8715 -0.4123 -0.2656
vn 0.8114 -0.5142 -0.2779
vn 0.7912 -0.5433 -0.2808
vn -0.0000 -0.7389 0.6738
vn -0.8715 -0.4123 -0.2656
vn -0.8114 -0.5142 -0.2779
vn -0.8930 -0.3678 -0.2594
vn -0.0000 -0.3757 0.9267
vn 0.9186 0.2947 0.2632
vn 0.9256 0.2788 0.2561
vn 0.9283 0.2723 0.2531
vn -0.0000 0.8541 -0.5202
vn -0.9186 0.2947 0.2632
vn -0.9256 0.2788 0.2561
vn -0.9141 0.3045 0.2676
vn -0.0000 -0.5089 -0.8608
vn -0.0000 0.6286 -0.7778
vn 0.9181 -0.1806 -0.3527
vn 0.8370 -0.1951 -0.5112
vn 0.9396 -0.1742 -0.2946
vn -0.0000 -0.9922 -0.1245
vn -0.9181 -0.1806 -0.3527
vn -0.8370 -0.1951 -0.5112
vn -0.8068 -0.1984 -0.5566
vn -0.0000 0.9965 0.0833
vn -0.0000 -0.0000 1.0000
vn -0.0000 -0.0000 -0.0000
vn -0.9941 -0.1082 -0.0000
vn -0.0000 -0.0345 -0.9994
vn 0.9281 -0.3722 -0.0000
vn -0.0000 -0.7061 0.7082
vn -0.0000 -0.7934 -0.6087
vn -0.0000 -0.4593 0.8883
vn -0.0000 0.5012 -0.8654
vn -0.8322 0.5545 -0.0000
vn -0.0000 0.7223 0.6916
vn 0.9765 -0.2140 -0.0264
vn 0.9490 -0.3153 -0.0072
vn 0.9359 -0.3522 -0.0000
vn 0.9941 -0.1082 -0.0000
vn -0.9281 -0.3722 -0.0000
vn 0.8322 0.5545 -0.0000
vn -0.9490 -0.3153 -0.0072
vn -0.9765 -0.2140 -0.0264
vn -0.9359 -0.3522 -0.0000
vn -0.0000 0.9610 -0.2765
vn -0.0000 -0.8629 0.5053
vn -0.0000 -0.8630 0.5053
vn -0.5666 -0.0000 0.8240
vn -0.0000 -0.9641 0.2656
vn 0.5666 -0.0000 0.8240
vn -0.0000 0.4236 0.9059
vn -0.0000 -0.9930 0.1181
vn -0.0000 0.9930 0.1181
vn -0.0000 0.8908 0.4543
vn 0.8922 0.3721 0.2558
vn -0.9045 0.3800 0.1938
vn -0.9445 0.1471 -0.2939
vn 0.9445 0.1471 -0.2939
vn 0.9271 -0.1678 0.3352
vn -0.9252 -0.1707 0.3389
vn 0.9824 0.1550 0.1045
vn -0.9810 0.1725 0.0892
vn 0.8930 -0.3678 -0.2594
vn -0.7912 -0.5433 -0.2808
vn 0.9141 0.3045 0.2676
vn -0.9283 0.2723 0.2531
vn 0.8068 -0.1984 -0.5566
vn -0.9396 -0.1742 -0.2946
vn 0.9788 -0.2028 -0.0285
vn -0.9788 -0.2028 -0.0285
vt 0.836007 0.026407
vt 0.897642 0.026407
vt 0.862517 0.026407
vt 0.924174 0.026407
vt 0.923662 0.026407
vt 0.923150 0.026407
vt 0.894857 0.026380
vt 0.896882 0.026389
vt 0.896882 0.026389
vt 0.961811 0.026389
vt 0.961811 0.026389
vt 0.894104 0.026389
vt 0.894104 0.026389
vt 0.925018 0.026389
vt 0.862397 0.026389
vt 0.862397 0.026389
vt 0.925205 0.026389
vt 0.865124 0.026389
vt 0.893408 0.026407
vt 0.232916 0.377139
vt 0.265543 0.377139
vt 0.831476 0.026407
vt 0.862996 0.026407
vt 0.203631 0.377269
vt 0.203631 0.377269
vt 0.270120 0.376986
vt 0.205191 0.376986
vt 0.205191 0.376986
vt 0.172727 0.376986
vt 0.233327 0.376986
vt 0.233327 0.376986
vt 0.202083 0.376986
vt 0.202083 0.376986
vt 0.861545 0.026405
vt 0.861545 0.026405
vt 0.905718 0.026389
vt 0.905718 0.026389
vt 0.927710 0.026405
vt 0.927710 0.026405
vt 0.893292 0.026389
vt 0.893829 0.026389
vt 0.893829 0.026389
vt 0.926010 0.026389
vt 0.865458 0.026389
vt 0.862015 0.026389
vt 0.934529 0.026389
vt 0.934529 0.026389
vt 0.864390 0.026389
vt 0.864390 0.026389
vt 0.116298 0.061971
vt 0.116298 0.061971
vt 0.116298 0.061971
vt 0.116298 0.061971
vt 0.116298 0.061971
vt 0.116298 0.061971
vt 0.931746 0.026389
vt 0.893976 0.026389
vt 0.889570 0.026389
vt 0.892526 0.026389
vt 0.892526 0.026389
vt 0.892526 0.026389
vt 0.797765 0.026389
vt 0.797765 0.026389
vt 0.797765 0.026389
vt 0.929319 0.026389
vt 0.831926 0.026389
vt 0.830009 0.026407
vt 0.860226 0.026407
vt 0.895082 0.026407
vt 0.860790 0.026422
vt 0.797034 0.026400
vt 0.957379 0.026407
vt 0.832308 0.026407
vt 0.899721 0.026407
vt 0.923488 0.026407
vt 0.867433 0.026407
vt 0.923787 0.026407
vt 0.265879 0.377736
vt 0.267550 0.377736
vt 0.266919 0.377736
vt 0.898042 0.026389
vt 0.899082 0.026389
vt 0.899713 0.026389
vt 0.927409 0.026389
vt 0.928040 0.026389
vt 0.295246 0.377736
vt 0.295877 0.377736
vt 0.890503 0.026407
vt 0.896188 0.026407
vt 0.893741 0.026407
vt 0.116298 0.061971
vt 0.116298 0.061971
vt 0.923401 0.026407
s 1
usemtl lambert1
f 8/1/1 1/1/1 7/1/1
f 174/2/2 4/2/3 10/2/4
f 171/2/5 3/2/6 170/2/7
f 9/3/8 173/3/8 10/3/8
f 173/2/9 174/2/9 10/2/9
f 11/1/10 7/1/10 12/1/10
f 171/2/11 172/2/11 9/2/11
f 4/4/12 170/5/12 3/6/12
f 11/7/13 5/7/13 6/7/13
f 13/8/14 16/9/15 15/8/16
f 16/10/17 17/11/17 15/11/17
f 18/9/18 19/8/19 17/8/20
f 22/12/21 24/13/21 21/13/21
f 14/14/22 18/14/22 16/14/22
f 13/15/23 17/16/23 19/16/23
f 19/13/24 22/12/25 21/13/26
f 14/17/27 22/17/27 20/17/27
f 13/13/28 23/12/29 14/12/30
f 19/18/31 24/18/31 13/18/31
f 36/19/32 33/19/32 34/19/32
f 27/20/33 30/20/33 28/20/33
f 26/21/34 30/21/34 31/21/34
f 25/20/35 31/20/35 32/20/35
f 29/21/36 25/21/36 32/21/36
f 34/22/37 26/22/37 25/22/37
f 26/23/38 35/23/38 28/23/38
f 35/22/39 27/22/39 28/22/39
f 36/23/40 25/23/40 27/23/40
f 29/24/41 31/25/41 30/25/41
f 44/26/32 40/26/32 45/26/32
f 41/27/42 40/28/42 39/27/42
f 43/29/41 42/29/41 41/29/41
f 40/30/43 46/30/43 45/30/43
f 39/30/44 43/31/44 41/30/44
f 48/31/45 43/31/45 44/31/45
f 48/26/32 45/26/32 49/26/32
f 45/30/46 50/31/46 49/31/46
f 47/29/41 46/29/41 43/29/41
f 38/32/47 47/33/47 48/33/47
f 38/26/32 48/26/32 49/26/32
f 38/33/48 50/33/48 37/33/48
f 47/29/41 37/29/41 50/29/41
f 59/19/32 62/19/32 60/19/32
f 53/20/33 56/20/33 55/20/33
f 56/21/36 52/21/36 57/21/36
f 57/20/35 51/20/35 58/20/35
f 55/21/34 51/21/34 53/21/34
f 52/22/37 60/22/37 51/22/37
f 52/23/40 61/23/40 59/23/40
f 53/22/39 61/22/39 54/22/39
f 51/23/38 62/23/38 53/23/38
f 57/25/41 55/24/41 56/25/41
f 70/26/32 66/26/32 65/26/32
f 66/28/42 67/27/42 65/27/42
f 68/29/41 69/29/41 67/29/41
f 72/30/44 66/30/44 71/30/44
f 69/31/43 65/30/43 67/30/43
f 69/31/46 74/31/46 70/31/46
f 74/26/32 71/26/32 70/26/32
f 76/31/45 71/30/45 75/31/45
f 72/29/41 73/29/41 69/29/41
f 73/33/48 64/32/48 74/33/48
f 64/26/32 75/26/32 74/26/32
f 76/33/47 64/33/47 63/33/47
f 73/29/41 76/29/41 63/29/41
f 78/34/49 79/35/49 77/35/49
f 90/36/50 92/37/50 89/37/50
f 82/38/51 83/39/51 81/39/51
f 86/40/52 88/40/52 85/40/52
f 84/41/53 80/42/54 78/42/55
f 83/42/56 79/42/57 81/42/58
f 84/43/59 85/43/59 83/43/59
f 78/40/60 86/40/61 84/40/62
f 77/44/63 87/44/63 78/44/63
f 77/40/64 85/40/65 88/40/66
f 80/45/67 89/45/67 79/45/67
f 82/36/68 90/36/69 80/36/70
f 81/46/71 91/47/71 82/47/71
f 81/37/72 89/37/73 92/37/74
f 98/48/75 100/49/75 97/49/75
f 114/50/40 116/51/40 113/52/40
f 118/53/38 120/54/38 117/55/38
f 94/56/76 97/56/76 93/56/76
f 94/57/77 99/57/78 98/57/79
f 96/48/80 100/49/80 99/48/80
f 93/58/81 100/58/82 95/58/83
f 103/59/40 106/59/40 105/59/40
f 96/60/40 106/59/40 104/59/40
f 94/60/40 107/60/40 96/60/40
f 94/60/40 105/59/40 108/60/40
f 95/60/38 110/61/38 109/60/38
f 102/61/38 110/61/38 101/61/38
f 93/60/38 111/61/38 102/61/38
f 93/60/38 109/60/38 112/60/38
f 105/62/40 114/62/40 113/62/40
f 107/63/40 114/62/40 106/62/40
f 108/63/40 115/63/40 107/63/40
f 108/63/40 113/62/40 116/63/40
f 109/64/38 118/62/38 117/64/38
f 111/62/38 118/62/38 110/62/38
f 112/64/38 119/62/38 111/62/38
f 112/64/38 117/64/38 120/64/38
f 94/65/84 102/65/84 103/65/84
f 101/66/41 96/66/41 104/66/41
f 121/67/85 132/67/85 129/67/85
f 130/67/85 128/67/85 127/67/85
f 122/68/86 131/68/86 132/68/86
f 127/68/86 129/68/86 130/68/86
f 129/69/87 125/69/87 130/69/87
f 125/70/88 131/70/88 130/70/88
f 132/68/89 126/68/89 124/68/89
f 132/67/90 123/67/90 129/67/90
f 121/71/41 128/71/41 122/71/41
f 140/3/85 133/3/85 139/3/85
f 142/72/32 144/72/32 141/72/32
f 135/2/40 134/2/40 140/2/40
f 125/2/38 139/2/38 136/2/38
f 136/73/91 126/73/91 125/73/91
f 135/3/42 137/3/42 138/3/42
f 124/3/92 139/3/92 123/3/92
f 138/2/40 141/2/40 134/2/40
f 138/74/93 143/74/93 142/74/93
f 137/75/94 144/75/94 143/75/94
f 134/74/95 144/74/95 133/74/95
f 126/76/96 140/76/97 124/76/98
f 136/2/38 133/2/38 137/2/38
f 145/67/85 156/67/85 146/67/85
f 154/67/85 152/67/85 155/67/85
f 146/68/86 155/68/86 152/68/86
f 151/68/86 153/68/86 145/68/86
f 149/69/99 153/69/99 154/69/99
f 149/70/88 155/70/88 150/70/88
f 156/68/100 150/68/100 155/68/100
f 147/67/90 156/67/90 153/67/90
f 152/71/41 145/71/41 146/71/41
f 157/3/85 164/3/85 163/3/85
f 168/72/32 166/72/32 165/72/32
f 158/2/38 159/2/38 164/2/38
f 149/2/40 163/2/40 147/2/40
f 160/73/91 150/73/91 159/73/91
f 161/3/42 159/3/42 162/3/42
f 163/3/92 148/3/92 147/3/92
f 165/2/38 162/2/38 158/2/38
f 162/74/93 167/74/93 161/74/93
f 161/75/101 168/75/101 157/75/101
f 168/74/95 158/74/95 157/74/95
f 164/76/102 150/76/103 148/76/104
f 160/2/40 157/2/40 163/2/40
f 169/77/105 5/4/105 170/5/105
f 171/2/38 5/2/38 12/2/38
f 1/2/38 171/2/38 12/2/38
f 172/3/106 2/3/106 173/3/107
f 8/2/40 174/2/40 173/2/40
f 174/2/40 6/2/40 169/2/40
f 179/78/85 182/79/85 180/80/85
f 101/81/108 176/82/108 102/82/108
f 101/81/109 177/82/109 175/81/109
f 104/82/110 178/83/110 177/82/110
f 102/84/111 178/85/111 103/85/111
f 175/78/38 180/80/38 176/80/38
f 177/80/112 179/78/112 175/78/112
f 178/79/40 181/80/40 177/80/40
f 176/86/113 182/87/113 178/87/113
f 9/88/114 4/89/114 3/90/114
f 8/1/1 2/1/1 1/1/1
f 174/2/2 169/2/115 4/2/3
f 171/2/5 9/2/116 3/2/6
f 9/3/8 172/3/8 173/3/8
f 11/1/10 8/1/10 7/1/10
f 4/4/12 169/77/12 170/5/12
f 11/7/13 12/7/13 5/7/13
f 13/8/14 14/9/117 16/9/15
f 16/10/17 18/10/17 17/11/17
f 18/9/18 20/9/118 19/8/19
f 22/12/21 23/12/21 24/13/21
f 14/14/22 20/14/22 18/14/22
f 13/15/23 15/15/23 17/16/23
f 19/13/24 20/12/119 22/12/25
f 14/17/27 23/17/27 22/17/27
f 13/13/28 24/13/120 23/12/29
f 19/18/31 21/18/31 24/18/31
f 36/19/32 35/19/32 33/19/32
f 27/20/33 29/20/33 30/20/33
f 26/21/34 28/21/34 30/21/34
f 25/20/35 26/20/35 31/20/35
f 29/21/36 27/21/36 25/21/36
f 34/22/37 33/22/37 26/22/37
f 26/23/38 33/23/38 35/23/38
f 35/22/39 36/22/39 27/22/39
f 36/23/40 34/23/40 25/23/40
f 29/24/41 32/24/41 31/25/41
f 44/26/32 39/26/32 40/26/32
f 41/27/42 42/28/42 40/28/42
f 43/29/41 46/29/41 42/29/41
f 40/30/43 42/30/43 46/30/43
f 39/30/44 44/31/44 43/31/44
f 48/31/45 47/31/45 43/31/45
f 48/26/32 44/26/32 45/26/32
f 45/30/46 46/30/46 50/31/46
f 47/29/41 50/29/41 46/29/41
f 38/32/47 37/32/47 47/33/47
f 38/33/48 49/33/48 50/33/48
f 59/19/32 61/19/32 62/19/32
f 53/20/33 54/20/33 56/20/33
f 56/21/36 54/21/36 52/21/36
f 57/20/35 52/20/35 51/20/35
f 55/21/34 58/21/34 51/21/34
f 52/22/37 59/22/37 60/22/37
f 52/23/40 54/23/40 61/23/40
f 53/22/39 62/22/39 61/22/39
f 51/23/38 60/23/38 62/23/38
f 57/25/41 58/24/41 55/24/41
f 70/26/32 71/26/32 66/26/32
f 66/28/42 68/28/42 67/27/42
f 68/29/41 72/29/41 69/29/41
f 72/30/44 68/30/44 66/30/44
f 69/31/43 70/31/43 65/30/43
f 69/31/46 73/31/46 74/31/46
f 74/26/32 75/26/32 71/26/32
f 76/31/45 72/30/45 71/30/45
f 72/29/41 76/29/41 73/29/41
f 73/33/48 63/32/48 64/32/48
f 76/33/47 75/33/47 64/33/47
f 78/34/49 80/34/49 79/35/49
f 90/36/50 91/36/50 92/37/50
f 82/38/51 84/38/51 83/39/51
f 86/40/52 87/40/52 88/40/52
f 84/41/53 82/41/121 80/42/54
f 83/42/56 77/42/122 79/42/57
f 84/43/59 86/43/59 85/43/59
f 78/40/60 87/40/123 86/40/61
f 77/44/63 88/44/63 87/44/63
f 77/40/64 83/40/124 85/40/65
f 80/45/67 90/45/67 89/45/67
f 82/36/68 91/36/125 90/36/69
f 81/46/71 92/46/71 91/47/71
f 81/37/72 79/37/126 89/37/73
f 98/48/75 99/48/75 100/49/75
f 114/50/40 115/91/40 116/51/40
f 118/53/38 119/92/38 120/54/38
f 94/56/76 98/56/76 97/56/76
f 94/57/77 96/57/127 99/57/78
f 96/48/80 95/49/80 100/49/80
f 93/58/81 97/58/128 100/58/82
f 103/59/40 104/59/40 106/59/40
f 96/60/40 107/60/40 106/59/40
f 94/60/40 108/60/40 107/60/40
f 94/60/40 103/59/40 105/59/40
f 95/60/38 101/61/38 110/61/38
f 102/61/38 111/61/38 110/61/38
f 93/60/38 112/60/38 111/61/38
f 93/60/38 95/60/38 109/60/38
f 105/62/40 106/62/40 114/62/40
f 107/63/40 115/63/40 114/62/40
f 108/63/40 116/63/40 115/63/40
f 108/63/40 105/62/40 113/62/40
f 109/64/38 110/62/38 118/62/38
f 111/62/38 119/62/38 118/62/38
f 112/64/38 120/64/38 119/62/38
f 112/64/38 109/64/38 117/64/38
f 94/65/84 93/65/84 102/65/84
f 101/66/41 95/66/41 96/66/41
f 121/67/85 122/67/85 132/67/85
f 130/67/85 131/67/85 128/67/85
f 122/68/86 128/68/86 131/68/86
f 127/68/86 121/68/86 129/68/86
f 129/69/87 123/69/87 125/69/87
f 125/70/88 126/70/88 131/70/88
f 132/68/89 131/68/89 126/68/89
f 132/67/90 124/67/90 123/67/90
f 121/71/41 127/71/41 128/71/41
f 140/3/85 134/3/85 133/3/85
f 142/72/32 143/72/32 144/72/32
f 135/2/40 138/2/40 134/2/40
f 125/2/38 123/2/38 139/2/38
f 136/73/91 135/73/91 126/73/91
f 135/3/42 136/3/42 137/3/42
f 124/3/92 140/3/92 139/3/92
f 138/2/40 142/2/40 141/2/40
f 138/74/93 137/74/93 143/74/93
f 137/75/94 133/75/94 144/75/94
f 134/74/95 141/74/95 144/74/95
f 126/76/96 135/76/129 140/76/97
f 136/2/38 139/2/38 133/2/38
f 145/67/85 153/67/85 156/67/85
f 154/67/85 151/67/85 152/67/85
f 146/68/86 156/68/86 155/68/86
f 151/68/86 154/68/86 153/68/86
f 149/69/99 147/69/99 153/69/99
f 149/70/88 154/70/88 155/70/88
f 156/68/100 148/68/100 150/68/100
f 147/67/90 148/67/90 156/67/90
f 152/71/41 151/71/41 145/71/41
f 157/3/85 158/3/85 164/3/85
f 168/72/32 167/72/32 166/72/32
f 158/2/38 162/2/38 159/2/38
f 149/2/40 160/2/40 163/2/40
f 160/73/91 149/73/91 150/73/91
f 161/3/42 160/3/42 159/3/42
f 163/3/92 164/3/92 148/3/92
f 165/2/38 166/2/38 162/2/38
f 162/74/93 166/74/93 167/74/93
f 161/75/101 167/75/101 168/75/101
f 168/74/95 165/74/95 158/74/95
f 164/76/102 159/76/130 150/76/103
f 160/2/40 161/2/40 157/2/40
f 169/77/105 6/93/105 5/4/105
f 171/2/38 170/2/38 5/2/38
f 12/2/38 7/2/38 1/2/38
f 1/2/38 172/2/38 171/2/38
f 172/3/106 1/3/106 2/3/106
f 173/2/40 2/2/40 8/2/40
f 8/2/40 11/2/40 174/2/40
f 174/2/40 11/2/40 6/2/40
f 179/78/85 181/80/85 182/79/85
f 101/81/108 175/81/108 176/82/108
f 101/81/109 104/82/109 177/82/109
f 104/82/110 103/83/110 178/83/110
f 102/84/111 176/84/111 178/85/111
f 175/78/38 179/78/38 180/80/38
f 177/80/112 181/80/112 179/78/112
f 178/79/40 182/79/40 181/80/40
f 176/86/113 180/86/113 182/87/113
f 9/88/114 10/90/114 4/89/114
